HIERARCHY
ROOT Hips
{
	OFFSET 0.00000 0.00000 0.00000
	CHANNELS 6 Xposition Yposition Zposition Zrotation Yrotation Xrotation 
	JOINT LHipJoint
	{
		OFFSET 0 0 0
		CHANNELS 3 Zrotation Yrotation Xrotation
		JOINT LeftUpLeg
		{
			OFFSET 1.64577 -1.42384 0.94276
			CHANNELS 3 Zrotation Yrotation Xrotation
			JOINT LeftLeg
			{
				OFFSET 2.11538 -5.81197 0.00000
				CHANNELS 3 Zrotation Yrotation Xrotation
				JOINT LeftFoot
				{
					OFFSET 2.36541 -6.49893 0.00000
					CHANNELS 3 Zrotation Yrotation Xrotation
					JOINT LeftToeBase
					{
						OFFSET 0.17759 -0.48793 1.73865
						CHANNELS 3 Zrotation Yrotation Xrotation
						End Site
						{
							OFFSET 0.00000 -0.00000 0.91205
						}
					}
				}
			}
		}
	}
	JOINT RHipJoint
	{
		OFFSET 0 0 0
		CHANNELS 3 Zrotation Yrotation Xrotation
		JOINT RightUpLeg
		{
			OFFSET -1.43750 -1.42384 0.94276
			CHANNELS 3 Zrotation Yrotation Xrotation
			JOINT RightLeg
			{
				OFFSET -2.10480 -5.78291 0.00000
				CHANNELS 3 Zrotation Yrotation Xrotation
				JOINT RightFoot
				{
					OFFSET -2.34880 -6.45329 0.00000
					CHANNELS 3 Zrotation Yrotation Xrotation
					JOINT RightToeBase
					{
						OFFSET -0.22842 -0.62757 1.80469
						CHANNELS 3 Zrotation Yrotation Xrotation
						End Site
						{
							OFFSET -0.00000 -0.00000 0.95886
						}
					}
				}
			}
		}
	}
	JOINT LowerBack
	{
		OFFSET 0 0 0
		CHANNELS 3 Zrotation Yrotation Xrotation
		JOINT Spine
		{
			OFFSET 0.06217 1.93758 -0.49272
			CHANNELS 3 Zrotation Yrotation Xrotation
			JOINT Spine1
			{
				OFFSET -0.03114 2.03621 -0.05830
				CHANNELS 3 Zrotation Yrotation Xrotation
				JOINT Neck
				{
					OFFSET 0 0 0
					CHANNELS 3 Zrotation Yrotation Xrotation
					JOINT Neck1
					{
						OFFSET 0.04421 1.41010 0.26562
						CHANNELS 3 Zrotation Yrotation Xrotation
						JOINT Head
						{
							OFFSET -0.13407 1.43847 0.06181
							CHANNELS 3 Zrotation Yrotation Xrotation
							End Site
							{
								OFFSET -0.04980 1.45844 -0.00689
							}
						}
					}
				}
				JOINT LeftShoulder
				{
					OFFSET 0 0 0
					CHANNELS 3 Zrotation Yrotation Xrotation
					JOINT LeftArm
					{
						OFFSET 2.18382 1.47753 -0.35694
						CHANNELS 3 Zrotation Yrotation Xrotation
						JOINT LeftForeArm
						{
							OFFSET 5.05460 -0.00000 0.00000
							CHANNELS 3 Zrotation Yrotation Xrotation
							JOINT LeftHand
							{
								OFFSET 3.39013 -0.00000 0.00000
								CHANNELS 3 Zrotation Yrotation Xrotation
								JOINT LeftFingerBase
								{
									OFFSET 0 0 0
									CHANNELS 3 Zrotation Yrotation Xrotation
									JOINT LeftHandIndex1
									{
										OFFSET 0.57242 -0.00000 -0.00000
										CHANNELS 3 Zrotation Yrotation Xrotation
										End Site
										{
											OFFSET 0.46150 -0.00000 -0.00000
										}
									}
								}
								JOINT LThumb
								{
									OFFSET 0 0 0
									CHANNELS 3 Zrotation Yrotation Xrotation
									End Site
									{
										OFFSET 0.46855 -0.00000 0.46855
									}
								}
							}
						}
					}
				}
				JOINT RightShoulder
				{
					OFFSET 0 0 0
					CHANNELS 3 Zrotation Yrotation Xrotation
					JOINT RightArm
					{
						OFFSET -2.06033 1.72839 -0.47437
						CHANNELS 3 Zrotation Yrotation Xrotation
						JOINT RightForeArm
						{
							OFFSET -5.07010 -0.00000 0.00000
							CHANNELS 3 Zrotation Yrotation Xrotation
							JOINT RightHand
							{
								OFFSET -3.14957 -0.00000 -0.00000
								CHANNELS 3 Zrotation Yrotation Xrotation
								JOINT RightFingerBase
								{
									OFFSET 0 0 0
									CHANNELS 3 Zrotation Yrotation Xrotation
									JOINT RightHandIndex1
									{
										OFFSET -0.71819 -0.00000 -0.00000
										CHANNELS 3 Zrotation Yrotation Xrotation
										End Site
										{
											OFFSET -0.57902 -0.00000 -0.00000
										}
									}
								}
								JOINT RThumb
								{
									OFFSET 0 0 0
									CHANNELS 3 Zrotation Yrotation Xrotation
									End Site
									{
										OFFSET -0.58786 -0.00000 0.58786
									}
								}
							}
						}
					}
				}
			}
		}
	}
}
MOTION
Frames: 10
Frame Time: .0083333
4.6586 15.5271 -0.2427 0 0 0 0 0 0 -21 0 0 0 0 0 0 0 0 0 0 0 0 0 0 21 0 0 0 0 0 0 0 0 0 0 0 0 0 0 0 0 0 0 0 0 0 0 -16 0 0 21 0 0 11 0 0 0 -8 0 0 0 0 0 0 0 0 0 0 0 0 0 0 0 0 0 0 0 0 8 0 0 0 0 0 0 0 0 0 0 0 0 0 0 0 0 0
4.6586 15.5271 -0.2427 -160.1450 -83.6326 157.9300 0.0000 0.0000 0.0000 -21.0604 -16.9999 3.9784 1.6036 7.9864 22.6729 1.0030 17.2915 -31.8899 0.0357 1.2200 3.3544 0.0000 0.0000 0.0000 26.0904 16.4459 5.5842 -0.8486 -5.8753 16.4231 -0.4333 -18.7332 -29.7562 -0.7315 5.4643 -15.2376 -1.0733 2.3187 4.7730 -0.8860 2.9282 5.0577 -0.3859 1.3847 2.5249 9.3318 1.4316 -1.5173 -3.0582 1.7246 3.7841 -2.5862 0.9314 1.5963 -0.0000 -0.0000 0.0000 -79.9617 -6.9986 4.2720 15.2516 -24.4954 -3.3296 -0.0000 -0.0000 6.2760 19.2004 9.0764 3.1444 -7.1250 0.0000 -0.0000 -6.7344 39.4953 0.9184 -0.0000 -0.0000 0.0000 87.9039 -0.7430 34.6742 -19.1508 29.6057 -5.1051 0.0000 -0.0000 -17.5571 -15.4340 0.4645 -0.1282 7.1250 -0.0000 -0.0000 8.7086 -29.4449 3.3375
4.6591 15.5258 -0.2370 -160.4220 -83.5813 158.1300 0.0000 0.0000 0.0000 -21.0904 -16.8927 3.9735 1.6155 8.0146 22.7584 1.0283 17.1702 -31.9238 0.0406 1.3011 3.5778 0.0000 0.0000 0.0000 26.1214 16.5918 5.7576 -0.8450 -5.8633 16.3882 -0.4684 -18.7124 -29.9729 -0.6848 5.2906 -14.7393 -1.1833 2.3236 4.7305 -0.8767 2.9331 5.0456 -0.3138 1.3839 2.5300 9.3249 1.4313 -1.6276 -3.1260 1.7175 3.7651 -2.6079 0.9262 1.6105 -0.0000 0.0000 0.0000 -80.0117 -7.6009 3.3401 15.0648 -24.2364 -3.2525 -0.0000 -0.0000 5.2336 20.2667 9.1239 3.3510 -7.1250 0.0000 -0.0000 -5.8194 39.6303 0.7732 -0.0000 0.0000 0.0000 87.8267 -0.6329 34.5886 -19.1022 29.5454 -5.0811 0.0000 -0.0000 -17.2967 -15.3959 0.5282 -0.1454 7.1250 -0.0000 -0.0000 8.7328 -29.3793 3.3608
4.6598 15.5143 -0.2282 -160.7190 -83.6269 158.3440 0.0000 0.0000 0.0000 -21.1860 -16.8303 4.0241 1.6169 8.0179 22.7684 1.0416 17.0732 -31.9074 0.0433 1.3430 3.6932 0.0000 0.0000 0.0000 26.0394 16.1679 5.7613 -0.8480 -5.8733 16.4173 -0.4320 -18.6992 -29.7053 -0.7753 5.6219 -15.6912 -1.2546 2.2963 4.7649 -0.8905 2.8967 4.9434 -0.2911 1.3663 2.4021 9.3279 1.4159 -1.5311 -3.2033 1.7097 3.7475 -2.6349 0.9213 1.5882 -0.0000 0.0000 0.0000 -80.1017 -8.0241 2.6108 14.8810 -23.9801 -3.1774 -0.0000 -0.0000 4.4130 21.1861 9.7442 3.7532 -7.1250 0.0000 -0.0000 -5.1064 40.3640 0.5854 -0.0000 0.0000 0.0000 87.7931 -0.6905 34.4506 -19.0358 29.4632 -5.0485 0.0000 -0.0000 -17.0802 -15.2590 0.4968 -0.1355 7.1250 -0.0000 -0.0000 8.8419 -29.4104 3.3971
4.6588 15.5141 -0.2187 -161.5390 -83.7292 159.1070 0.0000 0.0000 0.0000 -21.3813 -16.8449 4.0173 1.6368 8.0645 22.9103 1.0529 17.0327 -31.9369 0.0404 1.2967 3.5656 0.0000 0.0000 0.0000 25.8289 15.9500 5.8271 -0.8345 -5.8275 16.2848 -0.4407 -18.5899 -29.6337 -0.7747 5.6199 -15.6854 -1.3371 2.2411 4.4748 -0.9410 2.8278 5.0542 -0.2811 1.3273 2.6778 9.3840 1.4575 -1.4996 -3.2712 1.7713 3.5020 -2.6662 0.9473 1.5088 -0.0000 0.0000 0.0000 -80.2446 -8.6840 1.9647 14.7363 -23.7775 -3.1189 -0.0000 -0.0000 3.9830 22.3234 10.5037 4.2808 -7.1250 0.0000 -0.0000 -4.2115 41.2769 0.3875 -0.0000 0.0000 0.0000 87.7751 -0.3032 34.2803 -18.8534 29.2361 -4.9590 0.0000 -0.0000 -16.9031 -15.1452 0.6446 -0.1745 7.1250 -0.0000 -0.0000 8.9172 -29.2584 3.4593
4.6580 15.5180 -0.2098 -160.7950 -83.6644 158.3340 0.0000 0.0000 0.0000 -21.3185 -16.8065 4.0022 1.6493 8.0938 22.9992 1.0608 17.0226 -31.9755 0.0386 1.2684 3.4877 0.0000 0.0000 0.0000 25.8848 16.0130 5.9232 -0.8221 -5.7851 16.1621 -0.4795 -18.4781 -29.7687 -0.7276 5.4501 -15.1971 -1.1782 2.2194 4.5446 -0.9483 2.8053 4.8969 -0.3825 1.3253 2.4835 9.3564 1.4488 -1.5094 -3.2345 1.7570 3.6299 -2.6494 0.9427 1.5502 0.0000 -0.0000 0.0000 -80.4277 -8.5950 2.0209 14.8748 -23.9714 -3.1749 -0.0000 -0.0000 3.5813 23.1651 10.7568 4.5659 -7.1250 0.0000 -0.0000 -3.4990 41.6295 0.2913 0.0000 -0.0000 0.0000 87.7943 -0.3869 34.0670 -18.7734 29.1361 -4.9200 0.0000 -0.0000 -16.7483 -15.0996 0.7192 -0.1940 7.1250 -0.0000 -0.0000 8.9461 -29.1816 3.4873
4.6611 15.5082 -0.2027 -158.3710 -83.4542 155.9170 0.0000 0.0000 0.0000 -20.9780 -16.7935 3.9212 1.6661 8.1330 23.1188 1.0654 17.0449 -32.0270 0.0366 1.2350 3.3955 0.0000 0.0000 0.0000 26.2297 15.7072 5.9468 -0.8108 -5.7462 16.0497 -0.3750 -18.6848 -29.2884 -0.8965 6.0345 -16.8846 -0.8432 2.1925 4.3243 -0.8616 2.7821 4.9530 -0.4696 1.3221 2.6761 9.3104 1.5017 -1.7579 -3.2672 1.8068 3.7156 -2.6509 0.9672 1.6260 -0.0000 0.0000 0.0000 -80.6826 -8.6927 2.2077 15.1348 -24.3335 -3.2813 -0.0000 -0.0000 3.6513 23.0275 10.7067 4.5150 -7.1250 0.0000 -0.0000 -3.6148 41.5621 0.3070 -0.0000 0.0000 0.0000 87.7602 -0.1741 33.9670 -18.7788 29.1428 -4.9226 0.0000 -0.0000 -16.6102 -15.0714 0.5030 -0.1355 7.1250 -0.0000 -0.0000 8.9871 -29.4027 3.4558
4.6619 15.5175 -0.2003 -158.0330 -83.3315 155.5220 0.0000 0.0000 0.0000 -20.9240 -16.7755 4.0193 1.6620 8.1233 23.0892 1.0663 17.1015 -32.0897 0.0372 1.2444 3.4214 0.0000 0.0000 0.0000 26.3523 16.1842 6.0985 -0.8114 -5.7483 16.0559 -0.4541 -18.5579 -29.6887 -0.7366 5.4831 -15.2918 -0.7672 2.1961 4.5736 -0.8662 2.7904 4.6770 -0.5326 1.3341 2.2547 9.3489 1.5012 -1.4685 -3.2520 1.8304 3.7935 -2.6532 0.9824 1.6015 0.0000 0.0000 0.0000 -80.8561 -8.2827 2.6623 15.3553 -24.6388 -3.3727 -0.0000 -0.0000 4.0432 22.4040 10.4428 4.2733 -7.1250 0.0000 -0.0000 -4.1320 41.2192 0.3861 0.0000 0.0000 0.0000 87.8118 -0.5154 33.8345 -18.7485 29.1050 -4.9079 0.0000 -0.0000 -16.4840 -15.0215 0.3422 -0.0918 7.1250 -0.0000 -0.0000 9.0404 -29.5668 3.4410
4.6665 15.5035 -0.1923 -159.7720 -83.3554 157.1280 0.0000 0.0000 0.0000 -21.2230 -16.7347 4.1401 1.6647 8.1296 23.1085 1.0878 17.0769 -32.1978 0.0450 1.3698 3.7669 0.0000 0.0000 0.0000 26.1013 15.7262 6.0820 -0.8144 -5.7587 16.0858 -0.3721 -18.6022 -29.1663 -0.8799 5.9801 -16.7266 -0.8642 2.2065 4.4951 -0.9691 2.8028 4.7245 -0.5802 1.3379 2.3484 9.4132 1.5064 -1.3714 -3.2985 1.8480 3.6134 -2.6801 0.9883 1.5285 0.0000 -0.0000 0.0000 -80.9779 -8.3747 3.4137 15.4823 -24.8137 -3.4258 -0.0000 -0.0000 4.0739 22.1628 9.9411 4.0225 -7.1250 0.0000 -0.0000 -4.2774 40.6598 0.4587 0.0000 -0.0000 0.0000 87.8880 -0.2659 33.6577 -18.5797 28.8930 -4.8261 0.0000 -0.0000 -16.5116 -15.0037 0.2952 -0.0791 7.1250 -0.0000 -0.0000 9.0585 -29.6146 3.4376
4.6660 15.5116 -0.1810 -161.7670 -83.4681 159.0280 0.0000 0.0000 0.0000 -21.5894 -16.6624 4.3178 1.6448 8.0833 22.9672 1.0636 17.1460 -32.1182 0.0452 1.3727 3.7748 0.0000 0.0000 0.0000 25.7326 15.7858 6.0373 -0.8287 -5.8077 16.2275 -0.4263 -18.3939 -29.2964 -0.8171 5.7679 -16.1124 -0.9369 2.1616 4.4500 -1.0833 2.7425 4.7401 -0.6534 1.3068 2.3919 9.5485 1.5499 -1.4763 -3.5416 1.9024 3.6208 -2.7873 1.0138 1.5602 -0.0000 -0.0000 0.0000 -81.1691 -8.2672 4.4256 15.7201 -25.1397 -3.5262 -0.0000 -0.0000 3.9426 21.8598 9.7922 3.9033 -7.1250 0.0000 -0.0000 -4.5234 40.4737 0.5060 -0.0000 -0.0000 0.0000 87.9138 -0.1194 33.5529 -18.5096 28.8048 -4.7923 0.0000 -0.0000 -16.5063 -15.0207 0.1892 -0.0508 7.1250 -0.0000 -0.0000 9.0551 -29.7231 3.4126
